<svg xmlns="http://www.w3.org/2000/svg" viewBox="0 0 242 45" role="img" aria-label="灵枢控制台">
                    <defs>
                        <filter id="apmBrushGlow" x="-16%" y="-45%" width="132%" height="190%">
                            <feGaussianBlur in="SourceAlpha" stdDeviation="1.05" result="titleGlow"></feGaussianBlur>
                            <feFlood flood-color="#61bfad" flood-opacity=".42" result="glowColor"></feFlood>
                            <feComposite in="glowColor" in2="titleGlow" operator="in" result="coloredGlow"></feComposite>
                            <feMerge>
                                <feMergeNode in="coloredGlow"></feMergeNode>
                                <feMergeNode in="SourceGraphic"></feMergeNode>
                            </feMerge>
                        </filter>
                    </defs>
                    <path
                        class="apm-brush-title__path" fill="#f9f7e8" fill-rule="evenodd"
                        d="M55 17 L55 13 L54 13 L54 12 L23 12 L23 10 L40 10 L40 9 L48 9 L48 10 L55 10 L55 11 L57 11 L57 14 L58 14 L58 18 L57 18 L57 27 L52 27 L52 26 L41 26 L41 29 L42 29 L42 36 L41 36 L41 38 L42 38 L42 39 L45 39 L45 40 L49 40 L49 41 L52 41 L52 42 L55 42 L55 43 L57 43 L57 45 L52 45 L52 44 L49 44 L49 43 L46 43 L46 42 L42 42 L42 41 L39 41 L39 42 L38 42 L38 43 L36 43 L36 44 L32 44 L32 45 L22 45 L22 42 L26 42 L26 43 L29 43 L29 42 L34 42 L34 41 L36 41 L36 40 L37 40 L37 39 L38 39 L38 38 L39 38 L39 27 L38 27 L38 26 L28 26 L28 27 L24 27 L24 26 L23 26 L23 24 L55 24 L55 20 L26 20 L26 21 L24 21 L24 20 L23 20 L23 18 L42 18 L42 17 L55 17 Z M26 34 L27 34 L27 40 L26 40 L26 41 L25 41 L25 40 L24 40 L24 28 L26 28 L26 34 Z M46 37 L46 38 L44 38 L44 35 L46 35 L46 34 L48 34 L48 33 L50 33 L50 32 L52 32 L52 31 L54 31 L54 30 L58 30 L58 32 L56 32 L56 33 L54 33 L54 34 L52 34 L52 35 L50 35 L50 36 L48 36 L48 37 L46 37 Z M64 14 L63 14 L63 13 L62 13 L62 11 L68 11 L68 10 L69 10 L69 9 L71 9 L71 10 L72 10 L72 11 L75 11 L75 13 L72 13 L72 41 L74 41 L74 42 L75 42 L75 44 L74 44 L74 45 L73 45 L73 44 L70 44 L70 45 L67 45 L67 42 L69 42 L69 14 L67 14 L67 21 L66 21 L66 39 L65 39 L65 45 L63 45 L63 30 L64 30 L64 14 Z M80 12 L80 19 L79 19 L79 41 L80 41 L80 42 L97 42 L97 45 L82 45 L82 44 L78 44 L78 43 L77 43 L77 40 L76 40 L76 24 L77 24 L77 12 L76 12 L76 10 L98 10 L98 13 L93 13 L93 12 L80 12 Z M85 36 L86 36 L86 37 L91 37 L91 36 L93 36 L93 35 L94 35 L94 20 L93 20 L93 15 L96 15 L96 21 L97 21 L97 35 L96 35 L96 37 L98 37 L98 39 L97 39 L97 40 L96 40 L96 39 L94 39 L94 38 L93 38 L93 39 L81 39 L81 36 L82 36 L82 21 L83 21 L83 14 L85 14 L85 15 L86 15 L86 19 L85 19 L85 36 Z M106 14 L102 14 L102 11 L106 11 L106 9 L109 9 L109 11 L111 11 L111 13 L109 13 L109 35 L111 35 L111 37 L110 37 L110 38 L109 38 L109 44 L108 44 L108 45 L104 45 L104 44 L103 44 L103 42 L107 42 L107 39 L102 39 L102 36 L107 36 L107 25 L106 25 L106 14 Z M112 44 L112 42 L114 42 L114 41 L123 41 L123 24 L113 24 L113 22 L114 22 L114 20 L115 20 L115 19 L112 19 L112 10 L114 10 L114 11 L123 11 L123 9 L126 9 L126 11 L135 11 L135 12 L136 12 L136 13 L137 13 L137 16 L138 16 L138 17 L135 17 L135 15 L134 15 L134 14 L132 14 L132 15 L133 15 L133 18 L134 18 L134 19 L137 19 L137 21 L135 21 L135 22 L136 22 L136 24 L126 24 L126 42 L137 42 L137 44 L112 44 Z M130 13 L116 13 L116 14 L114 14 L114 16 L116 16 L116 15 L118 15 L118 18 L117 18 L117 21 L126 21 L126 22 L134 22 L134 21 L132 21 L132 20 L131 20 L131 18 L130 18 L130 13 Z M148 9 L148 11 L152 11 L152 9 L153 9 L153 8 L154 8 L154 9 L155 9 L155 11 L165 11 L165 13 L164 13 L164 14 L159 14 L159 13 L155 13 L155 17 L154 17 L154 18 L160 18 L160 19 L161 19 L161 18 L164 18 L164 19 L165 19 L165 21 L154 21 L154 22 L157 22 L157 23 L162 23 L162 24 L163 24 L163 26 L164 26 L164 28 L163 28 L163 41 L164 41 L164 44 L163 44 L163 45 L158 45 L158 44 L157 44 L157 42 L161 42 L161 26 L160 26 L160 25 L154 25 L154 34 L153 34 L153 41 L154 41 L154 45 L151 45 L151 25 L150 25 L150 26 L146 26 L146 29 L145 29 L145 45 L142 45 L142 39 L143 39 L143 22 L146 22 L146 23 L151 23 L151 21 L143 21 L143 18 L148 18 L148 19 L151 19 L151 18 L152 18 L152 14 L146 14 L146 16 L145 16 L145 17 L143 17 L143 13 L144 13 L144 11 L145 11 L145 9 L148 9 Z M170 36 L171 36 L171 40 L170 40 L170 41 L169 41 L169 40 L168 40 L168 32 L167 32 L167 11 L169 11 L169 12 L170 12 L170 36 Z M178 16 L177 16 L177 44 L176 44 L176 45 L171 45 L171 42 L175 42 L175 29 L174 29 L174 26 L175 26 L175 9 L177 9 L177 10 L178 10 L178 16 Z M206 20 L206 19 L214 19 L214 17 L213 17 L213 12 L212 12 L212 9 L215 9 L215 13 L216 13 L216 18 L217 18 L217 23 L215 23 L215 22 L199 22 L199 23 L188 23 L188 24 L186 24 L186 23 L184 23 L184 21 L183 21 L183 17 L184 17 L184 12 L185 12 L185 9 L188 9 L188 11 L187 11 L187 16 L186 16 L186 21 L190 21 L190 20 L206 20 Z M184 40 L183 40 L183 25 L184 25 L184 24 L186 24 L186 25 L193 25 L193 24 L215 24 L215 25 L217 25 L217 35 L216 35 L216 45 L214 45 L214 44 L186 44 L186 45 L184 45 L184 40 Z M214 27 L212 27 L212 26 L196 26 L196 27 L188 27 L188 28 L186 28 L186 41 L187 41 L187 42 L213 42 L213 41 L214 41 L214 27 Z"
                        filter="url(#apmBrushGlow)"
                    ></path>
                </svg>
